<svg width="281" height="425" viewBox="0 0 281 425" fill="none" xmlns="http://www.w3.org/2000/svg">
<path fill-rule="evenodd" clip-rule="evenodd" d="M123.655 7.26233L90.8077 40.1094L112.154 61.4557V45.7925C112.154 45.1294 112.417 44.4935 112.886 44.0247L153.184 3.7268L156.72 7.26233L117.154 46.828V71.2718L144.401 44.0247L147.937 47.5602L117.154 78.3429V98.6537L171.783 44.0247L175.319 47.5602L117.154 105.725V299.462C117.154 300.125 116.891 300.761 116.422 301.23L82.7975 334.854V341.826H77.7975V320.644H82.7975V327.783L112.154 298.427V210.861L56.9601 155.667L60.4957 152.131L68.6732 160.309L81.9283 147.054L16.6622 81.7876L20.1977 78.252L31.7333 89.7876L69.7468 51.7741L73.2824 55.3097L35.2689 93.3232L40.2579 98.3122L85.5044 53.0658L89.0399 56.6013L43.7935 101.848L57.8883 115.943L81.5433 92.2876V72.9159H86.5433V93.3232C86.5433 93.9862 86.2799 94.6221 85.811 95.0909L61.4238 119.478L85.4638 143.518L95.7507 133.231V91.2566H100.751V134.267C100.751 134.93 100.487 135.566 100.019 136.035L72.2087 163.844L112.154 203.79V68.5268L71.9427 28.3154L75.4782 24.7799L87.2722 36.5738L101.044 22.802L90.5416 12.2996L94.0772 8.76403L104.58 19.2664L120.119 3.7268L123.655 7.26233ZM229.219 67.443L182.81 21.0342L179.274 24.5697L225.683 70.9785L211.265 85.3962L187.847 61.9779L184.312 65.5135L207.73 88.9317L170.109 126.552V93.3232H165.109V155.707C165.109 156.37 165.373 157.006 165.842 157.475L233.952 225.585V254.097L214.938 235.084L211.403 238.62L233.952 261.168V271.432L226.7 278.684L211.289 263.273L207.754 266.809L223.164 282.219L215.181 290.203C214.712 290.672 214.448 291.308 214.448 291.971V341.826H219.448V293.006L238.219 274.236C238.688 273.767 238.952 273.131 238.952 272.468V248.834L258.949 228.836L255.414 225.3L238.952 241.763V202.336L276.774 164.514C277.242 164.045 277.506 163.41 277.506 162.746V113.989H272.506V161.711L234.684 199.533C234.215 200.002 233.952 200.638 233.952 201.301V218.514L214.801 199.363L261.016 153.148C261.485 152.679 261.748 152.044 261.748 151.381V116.83H256.748V150.345L211.265 195.828L201.562 186.124L238.865 148.821L235.33 145.286L198.027 182.589L184.771 169.334L263.406 90.6995L259.87 87.164L181.236 165.798L170.109 154.672V133.623L238.219 65.5135C238.688 65.0446 238.952 64.4087 238.952 63.7457V45.7925H233.952V62.7102L229.219 67.443ZM159.518 81.4405V124.838C159.518 125.501 159.255 126.137 158.786 126.606L144.536 140.856V285.935L155.767 274.704L159.303 278.239L144.536 293.006V341.826H139.536V328.396L128.515 317.375L132.05 313.839L139.536 321.325V231.074L126.803 218.342L130.339 214.806L139.536 224.003V158.164L125.415 144.042L128.95 140.507L139.536 151.093V139.821C139.536 139.158 139.799 138.522 140.268 138.053L154.518 123.803V111.924L140.268 97.6741L143.804 94.1386L154.518 104.853V81.4405H159.518ZM7.43274 142.568V118.639H2.43274V167.202C2.43274 167.866 2.69613 168.501 3.16497 168.97L28.6522 194.457V213.606L16.2907 201.244L12.7551 204.78L28.6522 220.677V230.039C28.6522 230.702 28.9156 231.338 29.3844 231.806L82.9638 285.386V298.427L66.7817 314.609V299.462C66.7817 298.799 66.5183 298.163 66.0494 297.694L50.9377 282.583L47.4022 286.118L61.7817 300.498V341.826H66.7817V321.68L87.2316 301.23C87.7005 300.761 87.9638 300.125 87.9638 299.462V221.708H82.9638V246.994L56.6426 220.672V177.019H51.6426V221.708C51.6426 222.371 51.906 223.007 52.3749 223.476L82.9638 254.065V278.315L33.6522 229.003V167.202H28.6522V187.386L7.43274 166.167V149.639L32.92 124.152L29.3844 120.616L7.43274 142.568ZM170.109 181.668V341.826H165.109V259.941L150.343 245.174L153.878 241.639L165.109 252.87V202.336L157.963 195.19L161.498 191.654L165.109 195.265V181.668H170.109ZM198.202 221.032V206.467H193.202V285.319C193.202 285.982 193.465 286.618 193.934 287.087L203.599 296.752V341.826H208.599V295.716C208.599 295.053 208.336 294.418 207.867 293.949L198.202 284.284V228.104L211.289 215.016L207.754 211.48L198.202 221.032ZM180.571 294.681V221.708H175.571V295.716C175.571 296.379 175.835 297.015 176.304 297.484L189.908 311.089V341.826H194.908V310.053C194.908 309.39 194.645 308.754 194.176 308.285L180.571 294.681ZM122.32 315.607V341.826H117.32V315.607H122.32ZM216.948 352.724H64.2817V347.724H216.948V352.724ZM61.7817 379.14V357.552H66.7817V376.64H189.234V381.64H84.5583L110.653 407.734H130.565L144.786 393.513L148.322 397.049L137.636 407.734H169.186L185.783 391.137L189.318 394.672L171.989 412.002C171.52 412.471 170.884 412.734 170.221 412.734H109.617C108.954 412.734 108.318 412.471 107.849 412.002L77.4873 381.64H64.2817C62.9009 381.64 61.7817 380.52 61.7817 379.14ZM214.448 363.964V358.018H219.448V366.464C219.448 367.845 218.329 368.964 216.948 368.964H105.854V363.964H214.448ZM159.328 421.646H125.857V416.646H159.328V421.646Z" fill="#182836"/>
<path fill-rule="evenodd" clip-rule="evenodd" d="M123.655 7.26233L90.8077 40.1094L112.154 61.4557V45.7925C112.154 45.1294 112.417 44.4935 112.886 44.0247L153.184 3.7268L156.72 7.26233L117.154 46.828V71.2718L144.401 44.0247L147.937 47.5602L117.154 78.3429V98.6537L171.783 44.0247L175.319 47.5602L117.154 105.725V299.462C117.154 300.125 116.891 300.761 116.422 301.23L82.7975 334.854V341.826H77.7975V320.644H82.7975V327.783L112.154 298.427V210.861L56.9601 155.667L60.4957 152.131L68.6732 160.309L81.9283 147.054L16.6622 81.7876L20.1977 78.252L31.7333 89.7876L69.7468 51.7741L73.2824 55.3097L35.2689 93.3232L40.2579 98.3122L85.5044 53.0658L89.0399 56.6013L43.7935 101.848L57.8883 115.943L81.5433 92.2876V72.9159H86.5433V93.3232C86.5433 93.9862 86.2799 94.6221 85.811 95.0909L61.4238 119.478L85.4638 143.518L95.7507 133.231V91.2566H100.751V134.267C100.751 134.93 100.487 135.566 100.019 136.035L72.2087 163.844L112.154 203.79V68.5268L71.9427 28.3154L75.4782 24.7799L87.2722 36.5738L101.044 22.802L90.5416 12.2996L94.0772 8.76403L104.58 19.2664L120.119 3.7268L123.655 7.26233ZM229.219 67.443L182.81 21.0342L179.274 24.5697L225.683 70.9785L211.265 85.3962L187.847 61.9779L184.312 65.5135L207.73 88.9317L170.109 126.552V93.3232H165.109V155.707C165.109 156.37 165.373 157.006 165.842 157.475L233.952 225.585V254.097L214.938 235.084L211.403 238.62L233.952 261.168V271.432L226.7 278.684L211.289 263.273L207.754 266.809L223.164 282.219L215.181 290.203C214.712 290.672 214.448 291.308 214.448 291.971V341.826H219.448V293.006L238.219 274.236C238.688 273.767 238.952 273.131 238.952 272.468V248.834L258.949 228.836L255.414 225.3L238.952 241.763V202.336L276.774 164.514C277.242 164.045 277.506 163.41 277.506 162.746V113.989H272.506V161.711L234.684 199.533C234.215 200.002 233.952 200.638 233.952 201.301V218.514L214.801 199.363L261.016 153.148C261.485 152.679 261.748 152.044 261.748 151.381V116.83H256.748V150.345L211.265 195.828L201.562 186.124L238.865 148.821L235.33 145.286L198.027 182.589L184.771 169.334L263.406 90.6995L259.87 87.164L181.236 165.798L170.109 154.672V133.623L238.219 65.5135C238.688 65.0446 238.952 64.4087 238.952 63.7457V45.7925H233.952V62.7102L229.219 67.443ZM159.518 81.4405V124.838C159.518 125.501 159.255 126.137 158.786 126.606L144.536 140.856V285.935L155.767 274.704L159.303 278.239L144.536 293.006V341.826H139.536V328.396L128.515 317.375L132.05 313.839L139.536 321.325V231.074L126.803 218.342L130.339 214.806L139.536 224.003V158.164L125.415 144.042L128.95 140.507L139.536 151.093V139.821C139.536 139.158 139.799 138.522 140.268 138.053L154.518 123.803V111.924L140.268 97.6741L143.804 94.1386L154.518 104.853V81.4405H159.518ZM7.43274 142.568V118.639H2.43274V167.202C2.43274 167.866 2.69613 168.501 3.16497 168.97L28.6522 194.457V213.606L16.2907 201.244L12.7551 204.78L28.6522 220.677V230.039C28.6522 230.702 28.9156 231.338 29.3844 231.806L82.9638 285.386V298.427L66.7817 314.609V299.462C66.7817 298.799 66.5183 298.163 66.0494 297.694L50.9377 282.583L47.4022 286.118L61.7817 300.498V341.826H66.7817V321.68L87.2316 301.23C87.7005 300.761 87.9638 300.125 87.9638 299.462V221.708H82.9638V246.994L56.6426 220.672V177.019H51.6426V221.708C51.6426 222.371 51.906 223.007 52.3749 223.476L82.9638 254.065V278.315L33.6522 229.003V167.202H28.6522V187.386L7.43274 166.167V149.639L32.92 124.152L29.3844 120.616L7.43274 142.568ZM170.109 181.668V341.826H165.109V259.941L150.343 245.174L153.878 241.639L165.109 252.87V202.336L157.963 195.19L161.498 191.654L165.109 195.265V181.668H170.109ZM198.202 221.032V206.467H193.202V285.319C193.202 285.982 193.465 286.618 193.934 287.087L203.599 296.752V341.826H208.599V295.716C208.599 295.053 208.336 294.418 207.867 293.949L198.202 284.284V228.104L211.289 215.016L207.754 211.48L198.202 221.032ZM180.571 294.681V221.708H175.571V295.716C175.571 296.379 175.835 297.015 176.304 297.484L189.908 311.089V341.826H194.908V310.053C194.908 309.39 194.645 308.754 194.176 308.285L180.571 294.681ZM122.32 315.607V341.826H117.32V315.607H122.32ZM216.948 352.724H64.2817V347.724H216.948V352.724ZM61.7817 379.14V357.552H66.7817V376.64H189.234V381.64H84.5583L110.653 407.734H130.565L144.786 393.513L148.322 397.049L137.636 407.734H169.186L185.783 391.137L189.318 394.672L171.989 412.002C171.52 412.471 170.884 412.734 170.221 412.734H109.617C108.954 412.734 108.318 412.471 107.849 412.002L77.4873 381.64H64.2817C62.9009 381.64 61.7817 380.52 61.7817 379.14ZM214.448 363.964V358.018H219.448V366.464C219.448 367.845 218.329 368.964 216.948 368.964H105.854V363.964H214.448ZM159.328 421.646H125.857V416.646H159.328V421.646Z" fill="url(#paint0_linear)"/>
<path d="M125 319C125 321.761 122.761 324 120 324C117.239 324 115 321.761 115 319C115 316.239 117.239 314 120 314C122.761 314 125 316.239 125 319Z" fill="#182836"/>
<path d="M125 319C125 321.761 122.761 324 120 324C117.239 324 115 321.761 115 319C115 316.239 117.239 314 120 314C122.761 314 125 316.239 125 319Z" fill="url(#paint1_linear)"/>
<path d="M135 316C135 318.761 132.761 321 130 321C127.239 321 125 318.761 125 316C125 313.239 127.239 311 130 311C132.761 311 135 313.239 135 316Z" fill="#182836"/>
<path d="M135 316C135 318.761 132.761 321 130 321C127.239 321 125 318.761 125 316C125 313.239 127.239 311 130 311C132.761 311 135 313.239 135 316Z" fill="url(#paint2_linear)"/>
<path d="M85 322C85 324.761 82.7614 327 80 327C77.2386 327 75 324.761 75 322C75 319.239 77.2386 317 80 317C82.7614 317 85 319.239 85 322Z" fill="#182836"/>
<path d="M85 322C85 324.761 82.7614 327 80 327C77.2386 327 75 324.761 75 322C75 319.239 77.2386 317 80 317C82.7614 317 85 319.239 85 322Z" fill="url(#paint3_linear)"/>
<path d="M53 283C53 285.761 50.7614 288 48 288C45.2386 288 43 285.761 43 283C43 280.239 45.2386 278 48 278C50.7614 278 53 280.239 53 283Z" fill="#182836"/>
<path d="M53 283C53 285.761 50.7614 288 48 288C45.2386 288 43 285.761 43 283C43 280.239 45.2386 278 48 278C50.7614 278 53 280.239 53 283Z" fill="url(#paint4_linear)"/>
<path d="M163 276C163 278.761 160.761 281 158 281C155.239 281 153 278.761 153 276C153 273.239 155.239 271 158 271C160.761 271 163 273.239 163 276Z" fill="#182836"/>
<path d="M163 276C163 278.761 160.761 281 158 281C155.239 281 153 278.761 153 276C153 273.239 155.239 271 158 271C160.761 271 163 273.239 163 276Z" fill="url(#paint5_linear)"/>
<path d="M157 243C157 245.761 154.761 248 152 248C149.239 248 147 245.761 147 243C147 240.239 149.239 238 152 238C154.761 238 157 240.239 157 243Z" fill="#182836"/>
<path d="M157 243C157 245.761 154.761 248 152 248C149.239 248 147 245.761 147 243C147 240.239 149.239 238 152 238C154.761 238 157 240.239 157 243Z" fill="url(#paint6_linear)"/>
<path d="M132 216C132 218.761 129.761 221 127 221C124.239 221 122 218.761 122 216C122 213.239 124.239 211 127 211C129.761 211 132 213.239 132 216Z" fill="#182836"/>
<path d="M132 216C132 218.761 129.761 221 127 221C124.239 221 122 218.761 122 216C122 213.239 124.239 211 127 211C129.761 211 132 213.239 132 216Z" fill="url(#paint7_linear)"/>
<path d="M91 221C91 223.761 88.7614 226 86 226C83.2386 226 81 223.761 81 221C81 218.239 83.2386 216 86 216C88.7614 216 91 218.239 91 221Z" fill="#182836"/>
<path d="M91 221C91 223.761 88.7614 226 86 226C83.2386 226 81 223.761 81 221C81 218.239 83.2386 216 86 216C88.7614 216 91 218.239 91 221Z" fill="url(#paint8_linear)"/>
<path d="M20 203C20 205.761 17.7614 208 15 208C12.2386 208 10 205.761 10 203C10 200.239 12.2386 198 15 198C17.7614 198 20 200.239 20 203Z" fill="#182836"/>
<path d="M20 203C20 205.761 17.7614 208 15 208C12.2386 208 10 205.761 10 203C10 200.239 12.2386 198 15 198C17.7614 198 20 200.239 20 203Z" fill="url(#paint9_linear)"/>
<path d="M59 176C59 178.761 56.7614 181 54 181C51.2386 181 49 178.761 49 176C49 173.239 51.2386 171 54 171C56.7614 171 59 173.239 59 176Z" fill="#182836"/>
<path d="M59 176C59 178.761 56.7614 181 54 181C51.2386 181 49 178.761 49 176C49 173.239 51.2386 171 54 171C56.7614 171 59 173.239 59 176Z" fill="url(#paint10_linear)"/>
<path d="M36 166C36 168.761 33.7614 171 31 171C28.2386 171 26 168.761 26 166C26 163.239 28.2386 161 31 161C33.7614 161 36 163.239 36 166Z" fill="#182836"/>
<path d="M36 166C36 168.761 33.7614 171 31 171C28.2386 171 26 168.761 26 166C26 163.239 28.2386 161 31 161C33.7614 161 36 163.239 36 166Z" fill="url(#paint11_linear)"/>
<path d="M36 123C36 125.761 33.7614 128 31 128C28.2386 128 26 125.761 26 123C26 120.239 28.2386 118 31 118C33.7614 118 36 120.239 36 123Z" fill="#182836"/>
<path d="M36 123C36 125.761 33.7614 128 31 128C28.2386 128 26 125.761 26 123C26 120.239 28.2386 118 31 118C33.7614 118 36 120.239 36 123Z" fill="url(#paint12_linear)"/>
<path d="M10 119C10 121.761 7.76142 124 5 124C2.23858 124 0 121.761 0 119C0 116.239 2.23858 114 5 114C7.76142 114 10 116.239 10 119Z" fill="#182836"/>
<path d="M10 119C10 121.761 7.76142 124 5 124C2.23858 124 0 121.761 0 119C0 116.239 2.23858 114 5 114C7.76142 114 10 116.239 10 119Z" fill="url(#paint13_linear)"/>
<path d="M63 153C63 155.761 60.7614 158 58 158C55.2386 158 53 155.761 53 153C53 150.239 55.2386 148 58 148C60.7614 148 63 150.239 63 153Z" fill="#182836"/>
<path d="M63 153C63 155.761 60.7614 158 58 158C55.2386 158 53 155.761 53 153C53 150.239 55.2386 148 58 148C60.7614 148 63 150.239 63 153Z" fill="url(#paint14_linear)"/>
<path d="M103 90C103 92.7614 100.761 95 98 95C95.2386 95 93 92.7614 93 90C93 87.2386 95.2386 85 98 85C100.761 85 103 87.2386 103 90Z" fill="#182836"/>
<path d="M103 90C103 92.7614 100.761 95 98 95C95.2386 95 93 92.7614 93 90C93 87.2386 95.2386 85 98 85C100.761 85 103 87.2386 103 90Z" fill="url(#paint15_linear)"/>
<path d="M89 73C89 75.7614 86.7614 78 84 78C81.2386 78 79 75.7614 79 73C79 70.2386 81.2386 68 84 68C86.7614 68 89 70.2386 89 73Z" fill="#182836"/>
<path d="M89 73C89 75.7614 86.7614 78 84 78C81.2386 78 79 75.7614 79 73C79 70.2386 81.2386 68 84 68C86.7614 68 89 70.2386 89 73Z" fill="url(#paint16_linear)"/>
<path d="M92 56C92 58.7614 89.7614 61 87 61C84.2386 61 82 58.7614 82 56C82 53.2386 84.2386 51 87 51C89.7614 51 92 53.2386 92 56Z" fill="#182836"/>
<path d="M92 56C92 58.7614 89.7614 61 87 61C84.2386 61 82 58.7614 82 56C82 53.2386 84.2386 51 87 51C89.7614 51 92 53.2386 92 56Z" fill="url(#paint17_linear)"/>
<path d="M76 54C76 56.7614 73.7614 59 71 59C68.2386 59 66 56.7614 66 54C66 51.2386 68.2386 49 71 49C73.7614 49 76 51.2386 76 54Z" fill="#182836"/>
<path d="M76 54C76 56.7614 73.7614 59 71 59C68.2386 59 66 56.7614 66 54C66 51.2386 68.2386 49 71 49C73.7614 49 76 51.2386 76 54Z" fill="url(#paint18_linear)"/>
<path d="M79 27C79 29.7614 76.7614 32 74 32C71.2386 32 69 29.7614 69 27C69 24.2386 71.2386 22 74 22C76.7614 22 79 24.2386 79 27Z" fill="#182836"/>
<path d="M79 27C79 29.7614 76.7614 32 74 32C71.2386 32 69 29.7614 69 27C69 24.2386 71.2386 22 74 22C76.7614 22 79 24.2386 79 27Z" fill="url(#paint19_linear)"/>
<path d="M97 10.4946C97 13.256 94.7614 15.4946 92 15.4946C89.2386 15.4946 87 13.256 87 10.4946C87 7.73314 89.2386 5.49457 92 5.49457C94.7614 5.49457 97 7.73314 97 10.4946Z" fill="#182836"/>
<path d="M97 10.4946C97 13.256 94.7614 15.4946 92 15.4946C89.2386 15.4946 87 13.256 87 10.4946C87 7.73314 89.2386 5.49457 92 5.49457C94.7614 5.49457 97 7.73314 97 10.4946Z" fill="url(#paint20_linear)"/>
<path d="M127 5.49457C127 8.25599 124.761 10.4946 122 10.4946C119.239 10.4946 117 8.25599 117 5.49457C117 2.73314 119.239 0.494568 122 0.494568C124.761 0.494568 127 2.73314 127 5.49457Z" fill="#182836"/>
<path d="M127 5.49457C127 8.25599 124.761 10.4946 122 10.4946C119.239 10.4946 117 8.25599 117 5.49457C117 2.73314 119.239 0.494568 122 0.494568C124.761 0.494568 127 2.73314 127 5.49457Z" fill="url(#paint21_linear)"/>
<path d="M161 5C161 7.76142 158.761 10 156 10C153.239 10 151 7.76142 151 5C151 2.23858 153.239 0 156 0C158.761 0 161 2.23858 161 5Z" fill="#182836"/>
<path d="M161 5C161 7.76142 158.761 10 156 10C153.239 10 151 7.76142 151 5C151 2.23858 153.239 0 156 0C158.761 0 161 2.23858 161 5Z" fill="url(#paint22_linear)"/>
<path d="M151 46C151 48.7614 148.761 51 146 51C143.239 51 141 48.7614 141 46C141 43.2386 143.239 41 146 41C148.761 41 151 43.2386 151 46Z" fill="#182836"/>
<path d="M151 46C151 48.7614 148.761 51 146 51C143.239 51 141 48.7614 141 46C141 43.2386 143.239 41 146 41C148.761 41 151 43.2386 151 46Z" fill="url(#paint23_linear)"/>
<path d="M179 45C179 47.7614 176.761 50 174 50C171.239 50 169 47.7614 169 45C169 42.2386 171.239 40 174 40C176.761 40 179 42.2386 179 45Z" fill="#182836"/>
<path d="M179 45C179 47.7614 176.761 50 174 50C171.239 50 169 47.7614 169 45C169 42.2386 171.239 40 174 40C176.761 40 179 42.2386 179 45Z" fill="url(#paint24_linear)"/>
<path d="M186 23C186 25.7614 183.761 28 181 28C178.239 28 176 25.7614 176 23C176 20.2386 178.239 18 181 18C183.761 18 186 20.2386 186 23Z" fill="#182836"/>
<path d="M186 23C186 25.7614 183.761 28 181 28C178.239 28 176 25.7614 176 23C176 20.2386 178.239 18 181 18C183.761 18 186 20.2386 186 23Z" fill="url(#paint25_linear)"/>
<path d="M241 45C241 47.7614 238.761 50 236 50C233.239 50 231 47.7614 231 45C231 42.2386 233.239 40 236 40C238.761 40 241 42.2386 241 45Z" fill="#182836"/>
<path d="M241 45C241 47.7614 238.761 50 236 50C233.239 50 231 47.7614 231 45C231 42.2386 233.239 40 236 40C238.761 40 241 42.2386 241 45Z" fill="url(#paint26_linear)"/>
<path d="M191 63C191 65.7614 188.761 68 186 68C183.239 68 181 65.7614 181 63C181 60.2386 183.239 58 186 58C188.761 58 191 60.2386 191 63Z" fill="#182836"/>
<path d="M191 63C191 65.7614 188.761 68 186 68C183.239 68 181 65.7614 181 63C181 60.2386 183.239 58 186 58C188.761 58 191 60.2386 191 63Z" fill="url(#paint27_linear)"/>
<path d="M173 94C173 96.7614 170.761 99 168 99C165.239 99 163 96.7614 163 94C163 91.2386 165.239 89 168 89C170.761 89 173 91.2386 173 94Z" fill="#182836"/>
<path d="M173 94C173 96.7614 170.761 99 168 99C165.239 99 163 96.7614 163 94C163 91.2386 165.239 89 168 89C170.761 89 173 91.2386 173 94Z" fill="url(#paint28_linear)"/>
<path d="M162 82C162 84.7614 159.761 87 157 87C154.239 87 152 84.7614 152 82C152 79.2386 154.239 77 157 77C159.761 77 162 79.2386 162 82Z" fill="#182836"/>
<path d="M162 82C162 84.7614 159.761 87 157 87C154.239 87 152 84.7614 152 82C152 79.2386 154.239 77 157 77C159.761 77 162 79.2386 162 82Z" fill="url(#paint29_linear)"/>
<path d="M148 96C148 98.7614 145.761 101 143 101C140.239 101 138 98.7614 138 96C138 93.2386 140.239 91 143 91C145.761 91 148 93.2386 148 96Z" fill="#182836"/>
<path d="M148 96C148 98.7614 145.761 101 143 101C140.239 101 138 98.7614 138 96C138 93.2386 140.239 91 143 91C145.761 91 148 93.2386 148 96Z" fill="url(#paint30_linear)"/>
<path d="M132 142C132 144.761 129.761 147 127 147C124.239 147 122 144.761 122 142C122 139.239 124.239 137 127 137C129.761 137 132 139.239 132 142Z" fill="#182836"/>
<path d="M132 142C132 144.761 129.761 147 127 147C124.239 147 122 144.761 122 142C122 139.239 124.239 137 127 137C129.761 137 132 139.239 132 142Z" fill="url(#paint31_linear)"/>
<path d="M267 89C267 91.7614 264.761 94 262 94C259.239 94 257 91.7614 257 89C257 86.2386 259.239 84 262 84C264.761 84 267 86.2386 267 89Z" fill="#182836"/>
<path d="M267 89C267 91.7614 264.761 94 262 94C259.239 94 257 91.7614 257 89C257 86.2386 259.239 84 262 84C264.761 84 267 86.2386 267 89Z" fill="url(#paint32_linear)"/>
<path d="M264 115C264 117.761 261.761 120 259 120C256.239 120 254 117.761 254 115C254 112.239 256.239 110 259 110C261.761 110 264 112.239 264 115Z" fill="#182836"/>
<path d="M264 115C264 117.761 261.761 120 259 120C256.239 120 254 117.761 254 115C254 112.239 256.239 110 259 110C261.761 110 264 112.239 264 115Z" fill="url(#paint33_linear)"/>
<path d="M280.006 112C280.006 114.761 277.767 117 275.006 117C272.244 117 270.006 114.761 270.006 112C270.006 109.239 272.244 107 275.006 107C277.767 107 280.006 109.239 280.006 112Z" fill="#182836"/>
<path d="M280.006 112C280.006 114.761 277.767 117 275.006 117C272.244 117 270.006 114.761 270.006 112C270.006 109.239 272.244 107 275.006 107C277.767 107 280.006 109.239 280.006 112Z" fill="url(#paint34_linear)"/>
<path d="M242 147C242 149.761 239.761 152 237 152C234.239 152 232 149.761 232 147C232 144.239 234.239 142 237 142C239.761 142 242 144.239 242 147Z" fill="#182836"/>
<path d="M242 147C242 149.761 239.761 152 237 152C234.239 152 232 149.761 232 147C232 144.239 234.239 142 237 142C239.761 142 242 144.239 242 147Z" fill="url(#paint35_linear)"/>
<path d="M173 181C173 183.761 170.761 186 168 186C165.239 186 163 183.761 163 181C163 178.239 165.239 176 168 176C170.761 176 173 178.239 173 181Z" fill="#182836"/>
<path d="M173 181C173 183.761 170.761 186 168 186C165.239 186 163 183.761 163 181C163 178.239 165.239 176 168 176C170.761 176 173 178.239 173 181Z" fill="url(#paint36_linear)"/>
<path d="M201 203C201 205.761 198.761 208 196 208C193.239 208 191 205.761 191 203C191 200.239 193.239 198 196 198C198.761 198 201 200.239 201 203Z" fill="#182836"/>
<path d="M201 203C201 205.761 198.761 208 196 208C193.239 208 191 205.761 191 203C191 200.239 193.239 198 196 198C198.761 198 201 200.239 201 203Z" fill="url(#paint37_linear)"/>
<path d="M214 213C214 215.761 211.761 218 209 218C206.239 218 204 215.761 204 213C204 210.239 206.239 208 209 208C211.761 208 214 210.239 214 213Z" fill="#182836"/>
<path d="M214 213C214 215.761 211.761 218 209 218C206.239 218 204 215.761 204 213C204 210.239 206.239 208 209 208C211.761 208 214 210.239 214 213Z" fill="url(#paint38_linear)"/>
<path d="M183 221C183 223.761 180.761 226 178 226C175.239 226 173 223.761 173 221C173 218.239 175.239 216 178 216C180.761 216 183 218.239 183 221Z" fill="#182836"/>
<path d="M183 221C183 223.761 180.761 226 178 226C175.239 226 173 223.761 173 221C173 218.239 175.239 216 178 216C180.761 216 183 218.239 183 221Z" fill="url(#paint39_linear)"/>
<path d="M217 236C217 238.761 214.761 241 212 241C209.239 241 207 238.761 207 236C207 233.239 209.239 231 212 231C214.761 231 217 233.239 217 236Z" fill="#182836"/>
<path d="M217 236C217 238.761 214.761 241 212 241C209.239 241 207 238.761 207 236C207 233.239 209.239 231 212 231C214.761 231 217 233.239 217 236Z" fill="url(#paint40_linear)"/>
<path d="M264 226C264 228.761 261.761 231 259 231C256.239 231 254 228.761 254 226C254 223.239 256.239 221 259 221C261.761 221 264 223.239 264 226Z" fill="#182836"/>
<path d="M264 226C264 228.761 261.761 231 259 231C256.239 231 254 228.761 254 226C254 223.239 256.239 221 259 221C261.761 221 264 223.239 264 226Z" fill="url(#paint41_linear)"/>
<path d="M213 264C213 266.761 210.761 269 208 269C205.239 269 203 266.761 203 264C203 261.239 205.239 259 208 259C210.761 259 213 261.239 213 264Z" fill="#182836"/>
<path d="M213 264C213 266.761 210.761 269 208 269C205.239 269 203 266.761 203 264C203 261.239 205.239 259 208 259C210.761 259 213 261.239 213 264Z" fill="url(#paint42_linear)"/>
<path d="M222 360C222 362.761 219.761 365 217 365C214.239 365 212 362.761 212 360C212 357.239 214.239 355 217 355C219.761 355 222 357.239 222 360Z" fill="#182836"/>
<path d="M222 360C222 362.761 219.761 365 217 365C214.239 365 212 362.761 212 360C212 357.239 214.239 355 217 355C219.761 355 222 357.239 222 360Z" fill="url(#paint43_linear)"/>
<path d="M69 360C69 362.761 66.7614 365 64 365C61.2386 365 59 362.761 59 360C59 357.239 61.2386 355 64 355C66.7614 355 69 357.239 69 360Z" fill="#182836"/>
<path d="M69 360C69 362.761 66.7614 365 64 365C61.2386 365 59 362.761 59 360C59 357.239 61.2386 355 64 355C66.7614 355 69 357.239 69 360Z" fill="url(#paint44_linear)"/>
<path d="M110 366C110 368.761 107.761 371 105 371C102.239 371 100 368.761 100 366C100 363.239 102.239 361 105 361C107.761 361 110 363.239 110 366Z" fill="#182836"/>
<path d="M110 366C110 368.761 107.761 371 105 371C102.239 371 100 368.761 100 366C100 363.239 102.239 361 105 361C107.761 361 110 363.239 110 366Z" fill="url(#paint45_linear)"/>
<path d="M152 395C152 397.761 149.761 400 147 400C144.239 400 142 397.761 142 395C142 392.239 144.239 390 147 390C149.761 390 152 392.239 152 395Z" fill="#182836"/>
<path d="M152 395C152 397.761 149.761 400 147 400C144.239 400 142 397.761 142 395C142 392.239 144.239 390 147 390C149.761 390 152 392.239 152 395Z" fill="url(#paint46_linear)"/>
<path d="M194 379C194 381.761 191.761 384 189 384C186.239 384 184 381.761 184 379C184 376.239 186.239 374 189 374C191.761 374 194 376.239 194 379Z" fill="#182836"/>
<path d="M194 379C194 381.761 191.761 384 189 384C186.239 384 184 381.761 184 379C184 376.239 186.239 374 189 374C191.761 374 194 376.239 194 379Z" fill="url(#paint47_linear)"/>
<path d="M192 393C192 395.761 189.761 398 187 398C184.239 398 182 395.761 182 393C182 390.239 184.239 388 187 388C189.761 388 192 390.239 192 393Z" fill="#182836"/>
<path d="M192 393C192 395.761 189.761 398 187 398C184.239 398 182 395.761 182 393C182 390.239 184.239 388 187 388C189.761 388 192 390.239 192 393Z" fill="url(#paint48_linear)"/>
<path d="M164 419.146C164 421.908 161.761 424.146 159 424.146C156.239 424.146 154 421.908 154 419.146C154 416.385 156.239 414.146 159 414.146C161.761 414.146 164 416.385 164 419.146Z" fill="#182836"/>
<path d="M164 419.146C164 421.908 161.761 424.146 159 424.146C156.239 424.146 154 421.908 154 419.146C154 416.385 156.239 414.146 159 414.146C161.761 414.146 164 416.385 164 419.146Z" fill="url(#paint49_linear)"/>
<path d="M131 419.146C131 421.908 128.761 424.146 126 424.146C123.239 424.146 121 421.908 121 419.146C121 416.385 123.239 414.146 126 414.146C128.761 414.146 131 416.385 131 419.146Z" fill="#182836"/>
<path d="M131 419.146C131 421.908 128.761 424.146 126 424.146C123.239 424.146 121 421.908 121 419.146C121 416.385 123.239 414.146 126 414.146C128.761 414.146 131 416.385 131 419.146Z" fill="url(#paint50_linear)"/>
<path d="M69 350C69 352.761 66.7614 355 64 355C61.2386 355 59 352.761 59 350C59 347.239 61.2386 345 64 345C66.7614 345 69 347.239 69 350Z" fill="#182836"/>
<path d="M69 350C69 352.761 66.7614 355 64 355C61.2386 355 59 352.761 59 350C59 347.239 61.2386 345 64 345C66.7614 345 69 347.239 69 350Z" fill="url(#paint51_linear)"/>
<path d="M222 350C222 352.761 219.761 355 217 355C214.239 355 212 352.761 212 350C212 347.239 214.239 345 217 345C219.761 345 222 347.239 222 350Z" fill="#182836"/>
<path d="M222 350C222 352.761 219.761 355 217 355C214.239 355 212 352.761 212 350C212 347.239 214.239 345 217 345C219.761 345 222 347.239 222 350Z" fill="url(#paint52_linear)"/>
<path d="M163 192C163 194.761 160.761 197 158 197C155.239 197 153 194.761 153 192C153 189.239 155.239 187 158 187C160.761 187 163 189.239 163 192Z" fill="#182836"/>
<path d="M163 192C163 194.761 160.761 197 158 197C155.239 197 153 194.761 153 192C153 189.239 155.239 187 158 187C160.761 187 163 189.239 163 192Z" fill="url(#paint53_linear)"/>
<path d="M24 81C24 83.7614 21.7614 86 19 86C16.2386 86 14 83.7614 14 81C14 78.2386 16.2386 76 19 76C21.7614 76 24 78.2386 24 81Z" fill="#182836"/>
<path d="M24 81C24 83.7614 21.7614 86 19 86C16.2386 86 14 83.7614 14 81C14 78.2386 16.2386 76 19 76C21.7614 76 24 78.2386 24 81Z" fill="url(#paint54_linear)"/>
<defs>
<linearGradient id="paint0_linear" x1="140.003" y1="0" x2="140.003" y2="424.146" gradientUnits="userSpaceOnUse">
<stop offset="0.140625" stop-color="#CEE8FE"/>
<stop offset="1" stop-color="white" stop-opacity="0"/>
</linearGradient>
<linearGradient id="paint1_linear" x1="140.003" y1="0" x2="140.003" y2="424.146" gradientUnits="userSpaceOnUse">
<stop offset="0.140625" stop-color="#CEE8FE"/>
<stop offset="1" stop-color="white" stop-opacity="0"/>
</linearGradient>
<linearGradient id="paint2_linear" x1="140.003" y1="0" x2="140.003" y2="424.146" gradientUnits="userSpaceOnUse">
<stop offset="0.140625" stop-color="#CEE8FE"/>
<stop offset="1" stop-color="white" stop-opacity="0"/>
</linearGradient>
<linearGradient id="paint3_linear" x1="140.003" y1="0" x2="140.003" y2="424.146" gradientUnits="userSpaceOnUse">
<stop offset="0.140625" stop-color="#CEE8FE"/>
<stop offset="1" stop-color="white" stop-opacity="0"/>
</linearGradient>
<linearGradient id="paint4_linear" x1="140.003" y1="0" x2="140.003" y2="424.146" gradientUnits="userSpaceOnUse">
<stop offset="0.140625" stop-color="#CEE8FE"/>
<stop offset="1" stop-color="white" stop-opacity="0"/>
</linearGradient>
<linearGradient id="paint5_linear" x1="140.003" y1="0" x2="140.003" y2="424.146" gradientUnits="userSpaceOnUse">
<stop offset="0.140625" stop-color="#CEE8FE"/>
<stop offset="1" stop-color="white" stop-opacity="0"/>
</linearGradient>
<linearGradient id="paint6_linear" x1="140.003" y1="0" x2="140.003" y2="424.146" gradientUnits="userSpaceOnUse">
<stop offset="0.140625" stop-color="#CEE8FE"/>
<stop offset="1" stop-color="white" stop-opacity="0"/>
</linearGradient>
<linearGradient id="paint7_linear" x1="140.003" y1="0" x2="140.003" y2="424.146" gradientUnits="userSpaceOnUse">
<stop offset="0.140625" stop-color="#CEE8FE"/>
<stop offset="1" stop-color="white" stop-opacity="0"/>
</linearGradient>
<linearGradient id="paint8_linear" x1="140.003" y1="0" x2="140.003" y2="424.146" gradientUnits="userSpaceOnUse">
<stop offset="0.140625" stop-color="#CEE8FE"/>
<stop offset="1" stop-color="white" stop-opacity="0"/>
</linearGradient>
<linearGradient id="paint9_linear" x1="140.003" y1="0" x2="140.003" y2="424.146" gradientUnits="userSpaceOnUse">
<stop offset="0.140625" stop-color="#CEE8FE"/>
<stop offset="1" stop-color="white" stop-opacity="0"/>
</linearGradient>
<linearGradient id="paint10_linear" x1="140.003" y1="0" x2="140.003" y2="424.146" gradientUnits="userSpaceOnUse">
<stop offset="0.140625" stop-color="#CEE8FE"/>
<stop offset="1" stop-color="white" stop-opacity="0"/>
</linearGradient>
<linearGradient id="paint11_linear" x1="140.003" y1="0" x2="140.003" y2="424.146" gradientUnits="userSpaceOnUse">
<stop offset="0.140625" stop-color="#CEE8FE"/>
<stop offset="1" stop-color="white" stop-opacity="0"/>
</linearGradient>
<linearGradient id="paint12_linear" x1="140.003" y1="0" x2="140.003" y2="424.146" gradientUnits="userSpaceOnUse">
<stop offset="0.140625" stop-color="#CEE8FE"/>
<stop offset="1" stop-color="white" stop-opacity="0"/>
</linearGradient>
<linearGradient id="paint13_linear" x1="140.003" y1="0" x2="140.003" y2="424.146" gradientUnits="userSpaceOnUse">
<stop offset="0.140625" stop-color="#CEE8FE"/>
<stop offset="1" stop-color="white" stop-opacity="0"/>
</linearGradient>
<linearGradient id="paint14_linear" x1="140.003" y1="0" x2="140.003" y2="424.146" gradientUnits="userSpaceOnUse">
<stop offset="0.140625" stop-color="#CEE8FE"/>
<stop offset="1" stop-color="white" stop-opacity="0"/>
</linearGradient>
<linearGradient id="paint15_linear" x1="140.003" y1="0" x2="140.003" y2="424.146" gradientUnits="userSpaceOnUse">
<stop offset="0.140625" stop-color="#CEE8FE"/>
<stop offset="1" stop-color="white" stop-opacity="0"/>
</linearGradient>
<linearGradient id="paint16_linear" x1="140.003" y1="0" x2="140.003" y2="424.146" gradientUnits="userSpaceOnUse">
<stop offset="0.140625" stop-color="#CEE8FE"/>
<stop offset="1" stop-color="white" stop-opacity="0"/>
</linearGradient>
<linearGradient id="paint17_linear" x1="140.003" y1="0" x2="140.003" y2="424.146" gradientUnits="userSpaceOnUse">
<stop offset="0.140625" stop-color="#CEE8FE"/>
<stop offset="1" stop-color="white" stop-opacity="0"/>
</linearGradient>
<linearGradient id="paint18_linear" x1="140.003" y1="0" x2="140.003" y2="424.146" gradientUnits="userSpaceOnUse">
<stop offset="0.140625" stop-color="#CEE8FE"/>
<stop offset="1" stop-color="white" stop-opacity="0"/>
</linearGradient>
<linearGradient id="paint19_linear" x1="140.003" y1="0" x2="140.003" y2="424.146" gradientUnits="userSpaceOnUse">
<stop offset="0.140625" stop-color="#CEE8FE"/>
<stop offset="1" stop-color="white" stop-opacity="0"/>
</linearGradient>
<linearGradient id="paint20_linear" x1="140.003" y1="0" x2="140.003" y2="424.146" gradientUnits="userSpaceOnUse">
<stop offset="0.140625" stop-color="#CEE8FE"/>
<stop offset="1" stop-color="white" stop-opacity="0"/>
</linearGradient>
<linearGradient id="paint21_linear" x1="140.003" y1="0" x2="140.003" y2="424.146" gradientUnits="userSpaceOnUse">
<stop offset="0.140625" stop-color="#CEE8FE"/>
<stop offset="1" stop-color="white" stop-opacity="0"/>
</linearGradient>
<linearGradient id="paint22_linear" x1="140.003" y1="0" x2="140.003" y2="424.146" gradientUnits="userSpaceOnUse">
<stop offset="0.140625" stop-color="#CEE8FE"/>
<stop offset="1" stop-color="white" stop-opacity="0"/>
</linearGradient>
<linearGradient id="paint23_linear" x1="140.003" y1="0" x2="140.003" y2="424.146" gradientUnits="userSpaceOnUse">
<stop offset="0.140625" stop-color="#CEE8FE"/>
<stop offset="1" stop-color="white" stop-opacity="0"/>
</linearGradient>
<linearGradient id="paint24_linear" x1="140.003" y1="0" x2="140.003" y2="424.146" gradientUnits="userSpaceOnUse">
<stop offset="0.140625" stop-color="#CEE8FE"/>
<stop offset="1" stop-color="white" stop-opacity="0"/>
</linearGradient>
<linearGradient id="paint25_linear" x1="140.003" y1="0" x2="140.003" y2="424.146" gradientUnits="userSpaceOnUse">
<stop offset="0.140625" stop-color="#CEE8FE"/>
<stop offset="1" stop-color="white" stop-opacity="0"/>
</linearGradient>
<linearGradient id="paint26_linear" x1="140.003" y1="0" x2="140.003" y2="424.146" gradientUnits="userSpaceOnUse">
<stop offset="0.140625" stop-color="#CEE8FE"/>
<stop offset="1" stop-color="white" stop-opacity="0"/>
</linearGradient>
<linearGradient id="paint27_linear" x1="140.003" y1="0" x2="140.003" y2="424.146" gradientUnits="userSpaceOnUse">
<stop offset="0.140625" stop-color="#CEE8FE"/>
<stop offset="1" stop-color="white" stop-opacity="0"/>
</linearGradient>
<linearGradient id="paint28_linear" x1="140.003" y1="0" x2="140.003" y2="424.146" gradientUnits="userSpaceOnUse">
<stop offset="0.140625" stop-color="#CEE8FE"/>
<stop offset="1" stop-color="white" stop-opacity="0"/>
</linearGradient>
<linearGradient id="paint29_linear" x1="140.003" y1="0" x2="140.003" y2="424.146" gradientUnits="userSpaceOnUse">
<stop offset="0.140625" stop-color="#CEE8FE"/>
<stop offset="1" stop-color="white" stop-opacity="0"/>
</linearGradient>
<linearGradient id="paint30_linear" x1="140.003" y1="0" x2="140.003" y2="424.146" gradientUnits="userSpaceOnUse">
<stop offset="0.140625" stop-color="#CEE8FE"/>
<stop offset="1" stop-color="white" stop-opacity="0"/>
</linearGradient>
<linearGradient id="paint31_linear" x1="140.003" y1="0" x2="140.003" y2="424.146" gradientUnits="userSpaceOnUse">
<stop offset="0.140625" stop-color="#CEE8FE"/>
<stop offset="1" stop-color="white" stop-opacity="0"/>
</linearGradient>
<linearGradient id="paint32_linear" x1="140.003" y1="0" x2="140.003" y2="424.146" gradientUnits="userSpaceOnUse">
<stop offset="0.140625" stop-color="#CEE8FE"/>
<stop offset="1" stop-color="white" stop-opacity="0"/>
</linearGradient>
<linearGradient id="paint33_linear" x1="140.003" y1="0" x2="140.003" y2="424.146" gradientUnits="userSpaceOnUse">
<stop offset="0.140625" stop-color="#CEE8FE"/>
<stop offset="1" stop-color="white" stop-opacity="0"/>
</linearGradient>
<linearGradient id="paint34_linear" x1="140.003" y1="0" x2="140.003" y2="424.146" gradientUnits="userSpaceOnUse">
<stop offset="0.140625" stop-color="#CEE8FE"/>
<stop offset="1" stop-color="white" stop-opacity="0"/>
</linearGradient>
<linearGradient id="paint35_linear" x1="140.003" y1="0" x2="140.003" y2="424.146" gradientUnits="userSpaceOnUse">
<stop offset="0.140625" stop-color="#CEE8FE"/>
<stop offset="1" stop-color="white" stop-opacity="0"/>
</linearGradient>
<linearGradient id="paint36_linear" x1="140.003" y1="0" x2="140.003" y2="424.146" gradientUnits="userSpaceOnUse">
<stop offset="0.140625" stop-color="#CEE8FE"/>
<stop offset="1" stop-color="white" stop-opacity="0"/>
</linearGradient>
<linearGradient id="paint37_linear" x1="140.003" y1="0" x2="140.003" y2="424.146" gradientUnits="userSpaceOnUse">
<stop offset="0.140625" stop-color="#CEE8FE"/>
<stop offset="1" stop-color="white" stop-opacity="0"/>
</linearGradient>
<linearGradient id="paint38_linear" x1="140.003" y1="0" x2="140.003" y2="424.146" gradientUnits="userSpaceOnUse">
<stop offset="0.140625" stop-color="#CEE8FE"/>
<stop offset="1" stop-color="white" stop-opacity="0"/>
</linearGradient>
<linearGradient id="paint39_linear" x1="140.003" y1="0" x2="140.003" y2="424.146" gradientUnits="userSpaceOnUse">
<stop offset="0.140625" stop-color="#CEE8FE"/>
<stop offset="1" stop-color="white" stop-opacity="0"/>
</linearGradient>
<linearGradient id="paint40_linear" x1="140.003" y1="0" x2="140.003" y2="424.146" gradientUnits="userSpaceOnUse">
<stop offset="0.140625" stop-color="#CEE8FE"/>
<stop offset="1" stop-color="white" stop-opacity="0"/>
</linearGradient>
<linearGradient id="paint41_linear" x1="140.003" y1="0" x2="140.003" y2="424.146" gradientUnits="userSpaceOnUse">
<stop offset="0.140625" stop-color="#CEE8FE"/>
<stop offset="1" stop-color="white" stop-opacity="0"/>
</linearGradient>
<linearGradient id="paint42_linear" x1="140.003" y1="0" x2="140.003" y2="424.146" gradientUnits="userSpaceOnUse">
<stop offset="0.140625" stop-color="#CEE8FE"/>
<stop offset="1" stop-color="white" stop-opacity="0"/>
</linearGradient>
<linearGradient id="paint43_linear" x1="140.003" y1="0" x2="140.003" y2="424.146" gradientUnits="userSpaceOnUse">
<stop offset="0.140625" stop-color="#CEE8FE"/>
<stop offset="1" stop-color="white" stop-opacity="0"/>
</linearGradient>
<linearGradient id="paint44_linear" x1="140.003" y1="0" x2="140.003" y2="424.146" gradientUnits="userSpaceOnUse">
<stop offset="0.140625" stop-color="#CEE8FE"/>
<stop offset="1" stop-color="white" stop-opacity="0"/>
</linearGradient>
<linearGradient id="paint45_linear" x1="140.003" y1="0" x2="140.003" y2="424.146" gradientUnits="userSpaceOnUse">
<stop offset="0.140625" stop-color="#CEE8FE"/>
<stop offset="1" stop-color="white" stop-opacity="0"/>
</linearGradient>
<linearGradient id="paint46_linear" x1="140.003" y1="0" x2="140.003" y2="424.146" gradientUnits="userSpaceOnUse">
<stop offset="0.140625" stop-color="#CEE8FE"/>
<stop offset="1" stop-color="white" stop-opacity="0"/>
</linearGradient>
<linearGradient id="paint47_linear" x1="140.003" y1="0" x2="140.003" y2="424.146" gradientUnits="userSpaceOnUse">
<stop offset="0.140625" stop-color="#CEE8FE"/>
<stop offset="1" stop-color="white" stop-opacity="0"/>
</linearGradient>
<linearGradient id="paint48_linear" x1="140.003" y1="0" x2="140.003" y2="424.146" gradientUnits="userSpaceOnUse">
<stop offset="0.140625" stop-color="#CEE8FE"/>
<stop offset="1" stop-color="white" stop-opacity="0"/>
</linearGradient>
<linearGradient id="paint49_linear" x1="140.003" y1="0" x2="140.003" y2="424.146" gradientUnits="userSpaceOnUse">
<stop offset="0.140625" stop-color="#CEE8FE"/>
<stop offset="1" stop-color="white" stop-opacity="0"/>
</linearGradient>
<linearGradient id="paint50_linear" x1="140.003" y1="0" x2="140.003" y2="424.146" gradientUnits="userSpaceOnUse">
<stop offset="0.140625" stop-color="#CEE8FE"/>
<stop offset="1" stop-color="white" stop-opacity="0"/>
</linearGradient>
<linearGradient id="paint51_linear" x1="140.003" y1="0" x2="140.003" y2="424.146" gradientUnits="userSpaceOnUse">
<stop offset="0.140625" stop-color="#CEE8FE"/>
<stop offset="1" stop-color="white" stop-opacity="0"/>
</linearGradient>
<linearGradient id="paint52_linear" x1="140.003" y1="0" x2="140.003" y2="424.146" gradientUnits="userSpaceOnUse">
<stop offset="0.140625" stop-color="#CEE8FE"/>
<stop offset="1" stop-color="white" stop-opacity="0"/>
</linearGradient>
<linearGradient id="paint53_linear" x1="140.003" y1="0" x2="140.003" y2="424.146" gradientUnits="userSpaceOnUse">
<stop offset="0.140625" stop-color="#CEE8FE"/>
<stop offset="1" stop-color="white" stop-opacity="0"/>
</linearGradient>
<linearGradient id="paint54_linear" x1="140.003" y1="0" x2="140.003" y2="424.146" gradientUnits="userSpaceOnUse">
<stop offset="0.140625" stop-color="#CEE8FE"/>
<stop offset="1" stop-color="white" stop-opacity="0"/>
</linearGradient>
</defs>
</svg>
